<svg width="0" height="0" class="hidden">
	<symbol viewBox="0 0 306 306" xmlns="http://www.w3.org/2000/svg" shape-rendering="geometricPrecision" fill-rule="evenodd" clip-rule="evenodd" id="arrow">
		<path fill-rule="nonzero" d="M225.81 48.9L128 146.73 30.19 48.91 0 79.09l128 128 128-128z"/>
	</symbol>

	<symbol viewBox="0 0 512 512" xmlns="http://www.w3.org/2000/svg" shape-rendering="geometricPrecision" fill-rule="evenodd" clip-rule="evenodd" id="zoom-in">
		<path fill-rule="nonzero" d="M456.14 427.85L361.7 333.4c65.81-80.08 61.33-198.94-13.45-273.73-79.56-79.56-209.01-79.56-288.57 0s-79.56 209 0 288.57c74.77 74.76 193.62 79.3 273.73 13.45l94.45 94.45a20 20 0 1028.3-28.29zm-136.2-107.9c-63.95 63.96-168.02 63.96-231.98 0-63.96-63.96-63.96-168.03 0-232C151.92 24 255.99 24 319.95 87.96c63.96 63.97 63.96 168.04 0 232z"/><path d="M301.9 183.95h-77.94V106a20 20 0 10-40.01 0v77.94H106a20 20 0 100 40h77.94v77.95a20 20 0 1040 0v-77.94h77.95a20 20 0 100-40.01z"/>
	</symbol>
</svg>